<?xml version="1.0" encoding="utf-8"?>
<!DOCTYPE svg PUBLIC "-//W3C//DTD SVG 1.0//EN" "http://www.w3.org/TR/2001/REC-SVG-20010904/DTD/svg10.dtd">
<svg version="1.0" xmlns="http://www.w3.org/2000/svg" width="263px" height="95px" viewBox="0 0 263 95" preserveAspectRatio="xMidYMid meet">
 <g fill="#f8f6f6">
  <path d="M0 47.50 l0 -47.50 131.50 0 131.50 0 0 47.50 0 47.50 -131.50 0 -131.50 0 0 -47.50z m33.55 17.25 c0.35 -2.30 4.35 -21.05 4.75 -22.35 0.25 -0.80 1.20 -0.90 10.25 -0.90 l9.95 0 0 2.45 c0 2.15 -0.70 5.95 -3.25 17.80 -1.15 5.35 -1.20 5.25 1.95 5.25 2.65 0 2.75 -0.05 3.05 -1.60 0.15 -0.90 0.60 -3.10 1 -4.90 0.35 -1.80 1.05 -4.95 1.50 -7 0.40 -2.05 1.20 -5.75 1.75 -8.15 1.25 -5.60 1.25 -6.95 -0.05 -8.15 -0.95 -0.85 -1.90 -0.95 -9.40 -0.95 -7.70 0 -8.45 0.10 -10.20 1.15 -1.05 0.60 -2.70 1.10 -3.65 1.10 -2.15 0 -2.20 -0.35 -0.20 -9.15 0.85 -3.70 1.50 -6.90 1.50 -7.05 0 -0.20 -1.30 -0.30 -2.85 -0.20 l-2.85 0.15 -0.90 3.75 c-0.50 2.05 -1.10 4.90 -1.35 6.25 -0.25 1.40 -1.40 6.90 -2.55 12.25 -3.50 16.25 -4.50 21.20 -4.50 21.90 0 0.50 0.75 0.60 2.90 0.50 l2.85 -0.15 0.30 -2z m91.80 -8.05 c5.45 -5.65 10.10 -10.65 10.35 -11.05 0.30 -0.60 -2.15 -3.35 -10.75 -11.95 l-11.20 -11.20 -3.75 0 -3.70 0 10.35 10.40 c9.25 9.30 10.35 10.60 10.35 12.05 0 1.40 -0.95 2.60 -7.35 9.35 l-7.40 7.70 -17.60 0 -17.65 0 0 -2.35 c0.05 -1.35 0.25 -3.30 0.45 -4.40 2.05 -9.60 2.55 -11.65 3 -12.85 l0.55 -1.40 9.50 0 9.50 0 0 2.30 c0 1.25 -0.25 3.25 -0.55 4.50 l-0.55 2.20 -6.65 0 c-5.60 0 -6.70 0.10 -6.95 0.80 -0.85 2.20 -0.80 2.25 9.05 2.10 l9.35 -0.15 0.35 -1.50 c2.40 -10.10 2.75 -12.70 1.80 -14 -0.70 -0.95 -1.45 -1 -11.95 -1.15 -13.55 -0.20 -15.10 -0.05 -17.15 2.05 -1.25 1.30 -1.75 2.40 -2.45 5.60 -0.45 2.20 -1.30 6.15 -1.85 8.75 -0.55 2.60 -1.35 6.20 -1.75 7.95 -0.95 3.85 -0.65 5.30 1.15 5.95 0.85 0.30 9.70 0.55 22.50 0.55 l21.05 0.05 9.95 -10.30z m32.65 9.90 c0 -0.20 -3.70 -4.05 -8.25 -8.60 l-8.25 -8.25 -1.85 1.90 -1.90 1.85 6.75 6.75 6.75 6.75 3.35 0 c1.90 0 3.40 -0.15 3.40 -0.40z m50.55 -0.60 c0.35 -0.75 0.85 -2.90 2.95 -12.75 0.55 -2.75 1.45 -7 2 -9.50 1.50 -7.15 1.55 -7.40 1.85 -9.10 0.20 -1.25 0 -1.85 -1.05 -2.85 l-1.25 -1.30 -35.15 0 -35.10 0 -2.65 2.60 c-1.45 1.45 -2.65 2.85 -2.65 3.15 0 0.30 0.85 1.40 1.90 2.40 l1.90 1.85 2.20 -2.25 2.20 -2.25 29.60 0 c16.30 0 29.95 0.15 30.40 0.30 1.25 0.45 1 4.40 -0.75 12.90 -0.85 4.15 -1.75 8.40 -2.05 9.45 l-0.45 1.85 -11.10 -0.10 -11.10 -0.15 0.05 -3.80 c0.05 -2.10 0.35 -4.40 0.75 -5.25 l0.70 -1.45 7.60 -0.15 7.65 -0.15 0.75 -1.45 c0.40 -0.80 0.75 -1.70 0.75 -2 0 -0.30 -3.30 -0.50 -9.75 -0.50 -10.60 0 -11.80 0.25 -13.45 2.75 -0.85 1.25 -3.80 13.25 -3.80 15.30 0 0.55 0.55 1.55 1.25 2.25 l1.20 1.20 17.10 -0.10 c14.60 -0.15 17.15 -0.25 17.50 -0.90z"/>
 </g>
 <g fill="#272728">
  <path d="M25.30 67.40 c0.20 -0.60 0.95 -4.15 1.70 -7.90 0.80 -3.70 2.35 -11.15 3.50 -16.50 1.15 -5.35 2.30 -10.85 2.55 -12.25 0.25 -1.35 0.85 -4.20 1.35 -6.25 l0.90 -3.75 4.65 -0.15 4.65 -0.15 -0.35 2 c-0.20 1.10 -0.95 4.80 -1.70 8.15 -0.75 3.40 -1.35 6.20 -1.30 6.30 0.05 0.10 1 -0.35 2.05 -1 1.85 -1.10 2.45 -1.15 11.75 -1.15 9 0 9.95 0.10 10.90 0.95 1.40 1.25 1.40 5.20 0.05 11.15 -0.55 2.40 -1.35 6.10 -1.75 8.15 -0.45 2.05 -1.15 5.20 -1.50 7 -0.40 1.80 -0.85 4 -1 4.90 l-0.35 1.60 -4.75 0 c-4.70 0 -4.75 0 -4.45 -1.10 0.20 -0.65 0.65 -2.70 1.05 -4.65 0.40 -1.90 1.40 -6.70 2.25 -10.65 0.80 -3.95 1.50 -7.60 1.50 -8.15 0 -0.90 -0.45 -0.95 -8.45 -0.95 -7.65 0 -8.50 0.10 -8.75 0.90 -0.40 1.30 -4.40 20.05 -4.75 22.35 l-0.30 2 -4.90 0.15 c-4.90 0.15 -4.95 0.15 -4.55 -1z"/>
  <path d="M70.50 67.95 c-0.65 -0.30 -1.40 -0.75 -1.60 -1.10 -0.60 -0.95 -0.45 -4.80 0.30 -8.05 0.40 -1.70 1.20 -5.20 1.75 -7.80 0.55 -2.60 1.40 -6.55 1.85 -8.75 1.05 -4.95 2.75 -6.95 6.25 -7.50 1.20 -0.15 7.90 -0.25 14.85 -0.15 12 0.15 12.70 0.20 13.45 1.15 1.20 1.60 0.70 6.55 -1.80 17 l-0.35 1.50 -11.15 0.15 -11.15 0.10 0.35 -2.30 c0.55 -3.90 0.15 -3.70 7.50 -3.70 l6.65 0 0.55 -2.20 c1 -4.05 1.50 -3.80 -7.45 -3.80 l-8 0 -0.55 1.40 c-0.45 1.20 -0.95 3.25 -3 12.85 -0.85 4.10 -2.40 3.75 15.70 3.75 l16.10 0 7.45 -7.80 7.45 -7.75 -11.95 -12 -11.90 -11.95 6.70 0 6.75 0 11.90 11.90 c6.50 6.50 11.85 12.05 11.85 12.30 0 0.40 -3.80 4.40 -16.45 17.40 l-5.75 5.90 -22.50 -0.05 c-13.60 0 -23.05 -0.20 -23.80 -0.50z"/>
 </g>
 <g fill="#ff8d00">
  <path d="M142.30 61.05 l-7.45 -7.45 3.15 -3.30 c3.25 -3.40 4.15 -3.85 4.85 -2.55 0.25 0.40 4.65 5 9.80 10.15 5.15 5.20 9.35 9.70 9.35 10 0 0.45 -1.85 0.60 -6.15 0.60 l-6.10 0 -7.45 -7.45z"/>
  <path d="M171.25 67.30 c-1 -1 -1.25 -1.75 -1.25 -3.75 0 -3.50 2.75 -15.30 3.95 -17 1.70 -2.40 2.85 -2.60 15.05 -2.45 l11.25 0.15 -0.15 1.95 c-0.10 1.10 -0.50 2.60 -0.90 3.35 l-0.70 1.40 -7.65 0.15 -7.60 0.15 -0.60 1.30 c-0.35 0.75 -0.70 2.40 -0.75 3.75 l-0.15 2.45 9.60 0.15 9.60 0.10 0.45 -1.85 c1 -4.05 3.60 -17 3.60 -18 0 -0.60 -0.35 -1.20 -0.80 -1.35 -0.45 -0.15 -13.45 -0.30 -28.90 -0.30 l-28.10 0 -2.70 2.75 c-1.50 1.50 -2.95 2.75 -3.25 2.75 -0.30 0 -1.95 -1.45 -3.75 -3.25 l-3.20 -3.20 0.95 -1.15 c0.55 -0.65 2.10 -2.35 3.45 -3.75 l2.50 -2.65 36.70 0 36.65 0 1.25 1.25 c1.15 1.15 1.25 1.55 1.05 4.40 -0.15 1.70 -0.40 3.80 -0.55 4.60 -0.45 2 -2.05 9.35 -3.30 15.50 -2.10 9.85 -2.60 12 -2.95 12.75 -0.35 0.65 -3.05 0.75 -19 0.90 l-18.60 0.10 -1.20 -1.20z"/>
 </g>
</svg>